<?xml version="1.0" encoding="UTF-8" standalone="no"?>
<!-- Created with Inkscape (http://www.inkscape.org/) -->

<svg
   xmlns:dc="http://purl.org/dc/elements/1.1/"
   xmlns:cc="http://creativecommons.org/ns#"
   xmlns:rdf="http://www.w3.org/1999/02/22-rdf-syntax-ns#"
   xmlns:svg="http://www.w3.org/2000/svg"
   xmlns="http://www.w3.org/2000/svg"
   xmlns:sodipodi="http://sodipodi.sourceforge.net/DTD/sodipodi-0.dtd"
   xmlns:inkscape="http://www.inkscape.org/namespaces/inkscape"
   width="650"
   height="350"
   id="svg2"
   sodipodi:version="0.32"
   inkscape:version="0.48.4 r9939"
   sodipodi:docname="Airfoil_geometry.svg"
   inkscape:output_extension="org.inkscape.output.svg.inkscape"
   version="1.0">
  <defs
     id="defs4" />
  <sodipodi:namedview
     id="base"
     pagecolor="#ffffff"
     bordercolor="#666666"
     borderopacity="1.0"
     inkscape:pageopacity="0.0"
     inkscape:pageshadow="2"
     inkscape:zoom="1.4"
     inkscape:cx="320.69885"
     inkscape:cy="167.17601"
     inkscape:document-units="px"
     inkscape:current-layer="layer1"
     inkscape:window-width="1030"
     inkscape:window-height="690"
     inkscape:window-x="1714"
     inkscape:window-y="209"
     inkscape:showpageshadow="false"
     width="650px"
     height="350px"
     showgrid="false"
     inkscape:window-maximized="0" />
  <metadata
     id="metadata7">
    <rdf:RDF>
      <cc:Work
         rdf:about="">
        <dc:format>image/svg+xml</dc:format>
        <dc:type
           rdf:resource="http://purl.org/dc/dcmitype/StillImage" />
        <dc:title></dc:title>
      </cc:Work>
    </rdf:RDF>
  </metadata>
  <g
     inkscape:label="Livello 1"
     inkscape:groupmode="layer"
     id="layer1"
     transform="translate(-39.048197,-514.98171)">
    <path
       style="opacity:1;fill:#e6e6e6;fill-opacity:1;stroke:#000000;stroke-width:3;stroke-linecap:square;stroke-linejoin:miter;stroke-miterlimit:4;stroke-dasharray:none;stroke-opacity:1"
       d="M 331.43592,614.94528 C 322.6277,614.92188 313.73869,615.20607 304.81092,615.82028 C 266.09289,618.48401 230.01551,629.15023 201.56092,651.88278 C 196.24829,656.12707 193.21717,661.52606 193.21717,668.16403 C 193.21717,679.20403 202.17717,688.16403 213.21717,688.16403 C 214.20416,688.22802 215.13696,688.08068 216.06092,687.97653 C 217.70287,687.74135 219.29144,687.3044 220.77967,686.69528 C 298.09239,665.84486 419.85001,652.73324 556.06092,669.60153 C 495.50926,643.61014 416.58206,615.17148 331.43592,614.94528 z "
       id="path2162"
       sodipodi:nodetypes="csssccccs" />
    <path
       sodipodi:type="arc"
       style="opacity:1;fill:none;fill-opacity:1;stroke:#000000;stroke-width:2;stroke-linecap:square;stroke-linejoin:miter;stroke-miterlimit:4;stroke-dasharray:none;stroke-opacity:1"
       id="path2160"
       sodipodi:cx="207.14285"
       sodipodi:cy="658.07648"
       sodipodi:rx="20"
       sodipodi:ry="20"
       d="m 227.14285,658.07648 c 0,11.04569 -8.9543,20 -20,20 -11.04569,0 -20,-8.95431 -20,-20 0,-11.0457 8.95431,-20 20,-20 11.0457,0 20,8.9543 20,20 z"
       transform="translate(6.0609153,10.101525)" />
    <path
       style="opacity:1;fill:none;fill-opacity:1;stroke:#000000;stroke-width:1.5;stroke-linecap:round;stroke-linejoin:round;stroke-miterlimit:4;stroke-dasharray:12,3,1.5,3;stroke-dashoffset:0;stroke-opacity:1"
       d="M 195.5258,677.00386 C 224.58014,659.85823 265.17457,646.06275 305.10732,641.60881 C 388.15048,632.34651 480.49047,648.90894 554.06868,669.0093"
       id="path3138"
       sodipodi:nodetypes="csc" />
    <path
       style="opacity:1;fill:none;fill-opacity:1;stroke:#000000;stroke-width:2;stroke-linecap:round;stroke-linejoin:round;stroke-miterlimit:4;stroke-dasharray:12, 12;stroke-dashoffset:0;stroke-opacity:1"
       d="M 103.20377,616.03514 C 103.20377,616.03514 628.91807,677.46371 628.91807,677.46371"
       id="path4127"
       sodipodi:nodetypes="cc" />
    <path
       style="opacity:1;fill:none;fill-opacity:1;stroke:#000000;stroke-width:2;stroke-linecap:round;stroke-linejoin:round;stroke-miterlimit:4;stroke-dasharray:12, 12;stroke-dashoffset:0;stroke-opacity:1"
       d="M 66.775198,820.32085 L 501.77521,628.178"
       id="path4129"
       sodipodi:nodetypes="cc" />
    <g
       id="g8373"
       transform="translate(6.0609153,10.101525)">
      <path
         style="opacity:1;fill:#000000;fill-opacity:1;stroke:none;stroke-width:4;stroke-linecap:round;stroke-linejoin:round;stroke-miterlimit:4;stroke-dasharray:none;stroke-dashoffset:0;stroke-opacity:1"
         d="M 267.3125,717.5 C 267.06331,717.51708 266.81952,717.58067 266.59375,717.6875 L 109.1875,786.5 C 108.17785,786.94873 107.72314,788.13098 108.17187,789.14063 C 108.62061,790.15027 109.80285,790.60498 110.8125,790.15625 L 268.21875,721.34375 C 269.12585,720.96897 269.62702,719.9914 269.40179,719.03611 C 269.17656,718.08083 268.29148,717.43009 267.3125,717.5 L 267.3125,717.5 z "
         id="path4131" />
      <path
         d="M 244.35629,719.01696 L 272.2452,717.34771 L 252.08168,736.68705 C 253.63953,729.79269 250.49725,722.66569 244.35629,719.01696 z "
         style="font-size:12px;fill-rule:evenodd;stroke-width:0.625;stroke-linejoin:round"
         id="path8379" />
    </g>
    <path
       style="font-size:40.82054138px;font-style:normal;font-weight:normal;fill:#000000;fill-opacity:1;stroke:none;stroke-width:1px;stroke-linecap:butt;stroke-linejoin:miter;stroke-opacity:1;font-family:Lello"
       d="M 251.12014,776.61217 L 251.12014,777.34816 C 250.16144,777.52058 249.43579,777.82559 248.94317,778.26318 C 248.23746,778.913 247.61167,779.90759 247.06579,781.24694 L 237.61897,804.20202 L 236.88,804.20202 L 226.73415,780.94856 C 226.21487,779.75508 225.84872,779.02572 225.63569,778.76047 C 225.30282,778.3494 224.89338,778.02782 224.4074,777.79573 C 223.9214,777.56368 223.26565,777.4145 222.44014,777.34816 L 222.44014,776.61217 L 233.50471,776.61217 L 233.50471,777.34816 C 232.25311,777.46754 231.44091,777.67971 231.06811,777.9847 C 230.69529,778.28973 230.50887,778.68093 230.50888,779.15831 C 230.50887,779.82139 230.81512,780.85576 231.4276,782.26142 L 238.31799,798.07536 L 244.70908,782.46034 C 245.33485,780.92207 245.64774,779.85454 245.64777,779.25777 C 245.64774,778.87322 245.45468,778.50522 245.06857,778.15377 C 244.68243,777.80238 244.03,777.55374 243.1113,777.40784 C 243.04471,777.3946 242.93154,777.37471 242.77178,777.34816 L 242.77178,776.61217 L 251.12014,776.61217 z "
       id="text4335" />
    <g
       id="g8381"
       transform="translate(6.0609153,10.101525)">
      <path
         style="opacity:1;fill:#000000;fill-opacity:1;stroke:none;stroke-width:2;stroke-linecap:butt;stroke-linejoin:round;stroke-miterlimit:4;stroke-dasharray:none;stroke-dashoffset:0;stroke-opacity:1"
         d="M 218.75,757.09375 L 218.75,759.09375 L 238.90625,759.09375 L 238.90625,757.09375 L 218.75,757.09375 z "
         id="path4339" />
      <path
         style="fill-rule:evenodd;stroke:#000000;stroke-width:0.4pt;marker-start:none"
         d="M 243.52773,758.09418 L 236.60773,762.09418 L 236.60773,754.09418 L 243.52773,758.09418 z "
         id="path8387" />
    </g>
    <path
       sodipodi:type="arc"
       style="opacity:1;fill:none;fill-opacity:1;stroke:#000000;stroke-width:2;stroke-linecap:round;stroke-linejoin:round;stroke-miterlimit:4;stroke-dasharray:none;stroke-dashoffset:0;stroke-opacity:1"
       id="path4345"
       sodipodi:cx="434.11307"
       sodipodi:cy="646.34399"
       sodipodi:rx="1.1995561"
       sodipodi:ry="1.1995561"
       d="m 435.31262,646.34399 c 0,0.6625 -0.53706,1.19956 -1.19955,1.19956 -0.6625,0 -1.19956,-0.53706 -1.19956,-1.19956 0,-0.66249 0.53706,-1.19955 1.19956,-1.19955 0.66249,0 1.19955,0.53706 1.19955,1.19955 z"
       transform="translate(6.0609153,9.0282384)" />
    <g
       id="g8363"
       transform="translate(6.0609153,10.101525)">
      <path
         style="fill:#000000;fill-opacity:1;stroke:none;stroke-width:2.14736843;stroke-linecap:round;stroke-linejoin:round;stroke-miterlimit:4;stroke-dashoffset:0;stroke-opacity:1"
         d="M 130.56047,609.22107 C 130.1162,609.30322 129.78218,609.67302 129.74552,610.12333 C 128.4251,621.66207 127.76635,633.39297 127.76635,645.28265 C 127.76635,652.72895 128.02894,660.08865 128.5522,667.40274 C 128.52341,667.7908 128.72233,668.16033 129.06211,668.34999 C 129.40189,668.53966 129.82083,668.51501 130.13603,668.28682 C 130.45123,668.05863 130.60545,667.66833 130.53137,667.28632 C 130.01149,660.01965 129.74552,652.6813 129.74552,645.28265 C 129.74552,633.46905 130.44198,621.79055 131.75379,610.32707 C 131.79458,610.00685 131.67829,609.68664 131.44154,609.46721 C 131.20478,609.24778 130.87667,609.15611 130.56047,609.22107 z "
         id="path4347" />
      <path
         d="M 133.62433,656.5634 L 129.75096,669.98507 L 124.00638,657.25149 C 126.99507,659.13762 130.87875,658.84767 133.62433,656.5634 z "
         style="font-size:12px;fill-rule:evenodd;stroke-width:0.625;stroke-linejoin:round"
         id="path8369" />
      <path
         d="M 124.74979,620.06748 L 131.03042,607.58958 L 134.3298,621.16376 C 131.73992,618.75912 127.86933,618.32834 124.74979,620.06748 z "
         style="font-size:12px;fill-rule:evenodd;stroke-width:0.625;stroke-linejoin:round"
         id="path8371" />
    </g>
    <path
       style="opacity:1;fill:none;fill-opacity:1;stroke:#000000;stroke-width:2;stroke-linecap:round;stroke-linejoin:round;stroke-miterlimit:4;stroke-dasharray:none;stroke-dashoffset:0;stroke-opacity:1"
       d="M 66.060928,680.89353 L 680.34667,666.45331"
       id="path4350" />
    <path
       id="path4352"
       d="M 200.74282,860.31155 L 196.19301,666.76311"
       style="opacity:1;fill:none;fill-opacity:1;stroke:#000000;stroke-width:2;stroke-linecap:round;stroke-linejoin:round;stroke-miterlimit:4;stroke-dasharray:8, 8;stroke-dashoffset:0;stroke-opacity:1"
       sodipodi:nodetypes="cc" />
    <path
       style="opacity:1;fill:none;fill-opacity:1;stroke:#000000;stroke-width:2;stroke-linecap:round;stroke-linejoin:round;stroke-miterlimit:4;stroke-dasharray:8, 8;stroke-dashoffset:0;stroke-opacity:1"
       d="M 558.995,849.58798 L 554.54589,660.32289"
       id="path4354"
       sodipodi:nodetypes="cc" />
    <g
       id="g8323"
       transform="translate(6.0609153,10.101525)">
      <path
         style="fill:#000000;fill-opacity:1;stroke:none;stroke-width:2;stroke-linecap:round;stroke-linejoin:round;stroke-miterlimit:4;stroke-dashoffset:0;stroke-opacity:1"
         d="M 552.125,813.46875 L 194.25,821.875 C 193.69772,821.89226 193.26399,822.35397 193.28125,822.90625 C 193.29851,823.45853 193.76022,823.89226 194.3125,823.875 L 552.1875,815.46875 C 552.73978,815.45149 553.17351,814.98978 553.15625,814.4375 C 553.13899,813.88522 552.67728,813.45149 552.125,813.46875 z "
         id="path4356" />
      <path
         d="M 204.85404,827.46376 L 191.63331,822.95195 L 204.62743,817.82389 C 202.60031,820.71881 202.7039,824.61192 204.85404,827.46376 z "
         style="font-size:12px;fill-rule:evenodd;stroke-width:0.625;stroke-linejoin:round"
         id="path8329" />
      <path
         d="M 541.58535,809.86447 L 554.80608,814.37628 L 541.81196,819.50434 C 543.83908,816.60942 543.73549,812.71631 541.58535,809.86447 z "
         style="font-size:12px;fill-rule:evenodd;stroke-width:0.625;stroke-linejoin:round"
         id="path8331" />
    </g>
    <path
       style="font-size:40.82054138px;font-style:normal;font-weight:normal;fill:#000000;fill-opacity:1;stroke:none;stroke-width:1px;stroke-linecap:butt;stroke-linejoin:miter;stroke-opacity:1;font-family:Lello"
       d="M 382.16429,852.10608 C 380.77954,853.76373 379.38148,854.98044 377.97014,855.75622 C 376.55876,856.53199 375.06751,856.91988 373.49638,856.91988 C 371.60568,856.91988 370.13107,856.38944 369.07254,855.32854 C 368.01402,854.26766 367.48476,852.84208 367.48477,851.05182 C 367.48476,849.02287 368.05396,847.02706 369.19238,845.0644 C 370.33079,843.10177 371.86198,841.5071 373.78597,840.28044 C 375.70995,839.0538 377.59731,838.44047 379.44808,838.44045 C 380.89937,838.44047 381.98452,838.74216 382.70353,839.34553 C 383.42251,839.94892 383.78201,840.68824 383.78203,841.56345 C 383.78201,842.38566 383.52903,843.0885 383.02309,843.67198 C 382.65026,844.12287 382.1909,844.34831 381.64501,844.3483 C 381.23224,844.34831 380.88938,844.2157 380.61644,843.95046 C 380.34348,843.68526 380.20701,843.35373 380.20702,842.95588 C 380.20701,842.70393 380.25694,842.47186 380.35681,842.25967 C 380.45665,842.0475 380.66303,841.79223 380.97594,841.49383 C 381.28882,841.19547 381.47856,840.97998 381.54515,840.84735 C 381.6117,840.71475 381.64499,840.57552 381.64501,840.42962 C 381.64499,840.15115 381.51851,839.91909 381.26554,839.73342 C 380.8794,839.46821 380.33349,839.3356 379.62782,839.33558 C 378.32296,839.3356 377.03144,839.7931 375.75322,840.70811 C 374.475,841.62314 373.38319,842.92274 372.47779,844.6069 C 371.38598,846.64912 370.84008,848.69134 370.84009,850.73355 C 370.84008,852.0862 371.2262,853.15704 371.99847,853.94606 C 372.77071,854.73511 373.82258,855.12963 375.15407,855.12963 C 376.17929,855.12963 377.19454,854.87435 378.19981,854.36379 C 379.20507,853.85324 380.33349,852.92828 381.58509,851.58889 L 382.16429,852.10608 z "
       id="text4362" />
    <path
       style="font-size:40.82054138px;font-style:normal;font-weight:normal;fill:#000000;fill-opacity:1;stroke:none;stroke-width:1px;stroke-linecap:butt;stroke-linejoin:miter;stroke-opacity:1;font-family:Lello"
       d="M 109.24726,737.50735 L 112.64252,737.50735 L 110.58538,746.71722 C 110.18593,748.46771 109.91298,749.54186 109.76653,749.93969 C 110.29911,752.37975 111.07136,753.59977 112.0833,753.59977 C 113.2816,753.59977 113.90074,752.77758 113.9407,751.1332 L 114.6597,751.1332 C 114.61974,752.67149 114.3368,753.91472 113.81089,754.8629 C 113.28493,755.81108 112.59589,756.28516 111.74377,756.28516 C 111.03808,756.28516 110.51214,756.00004 110.16597,755.42982 C 109.81977,754.85959 109.44696,753.6926 109.04754,751.92886 C 107.66279,754.83306 105.39928,756.28516 102.25701,756.28516 C 100.11332,756.28516 98.409035,755.45302 97.144137,753.78875 C 95.879233,752.12447 95.246782,749.74078 95.246784,746.63766 C 95.246782,743.5876 95.939149,741.21385 97.323887,739.51641 C 98.708616,737.81901 100.37296,736.97029 102.31692,736.97027 C 103.68833,736.97029 104.81343,737.45432 105.69221,738.42237 C 106.57098,739.39044 107.34989,740.96853 108.02895,743.1566 L 109.24726,737.50735 z M 107.48971,745.30491 C 106.8639,743.16987 106.16487,741.50229 105.39263,740.30213 C 104.62036,739.10202 103.69499,738.50195 102.6165,738.50194 C 100.1799,738.50195 98.961597,741.33984 98.961602,747.0156 C 98.961597,752.39964 100.12664,755.09166 102.45673,755.09165 C 104.48056,755.09166 105.97847,752.71791 106.95046,747.9704 L 107.48971,745.30491 z "
       id="text4370" />
    <path
       style="font-size:40.82054138px;font-style:normal;font-weight:normal;fill:#000000;fill-opacity:1;stroke:none;stroke-width:1px;stroke-linecap:butt;stroke-linejoin:miter;stroke-opacity:1;font-family:Lello"
       d="M 45.109112,649.78315 L 45.109112,648.15202 L 66.639079,648.15202 L 66.639079,649.78315 L 45.109112,649.78315 z M 87.124555,640.36445 L 90.519819,640.36445 L 88.462687,649.57433 C 88.063229,651.32482 87.790276,652.39897 87.64383,652.7968 C 88.176404,655.23686 88.948659,656.45688 89.960598,656.45688 C 91.158907,656.45688 91.778042,655.63469 91.818007,653.99031 L 92.537004,653.99031 C 92.497039,655.5286 92.214101,656.77183 91.688188,657.72001 C 91.162236,658.66819 90.473198,659.14227 89.621072,659.14227 C 88.915372,659.14227 88.38944,658.85715 88.043272,658.28693 C 87.697073,657.7167 87.32426,656.54971 86.924833,654.78597 C 85.540084,657.69017 83.276577,659.14227 80.134306,659.14227 C 77.990623,659.14227 76.286335,658.31013 75.021438,656.64586 C 73.756533,654.98158 73.124083,652.59789 73.124084,649.49477 C 73.124083,646.44471 73.81645,644.07096 75.201187,642.37352 C 76.585917,640.67612 78.25026,639.8274 80.194222,639.82738 C 81.565632,639.8274 82.690729,640.31143 83.569514,641.27948 C 84.448274,642.24756 85.227187,643.82564 85.906254,646.01371 L 87.124555,640.36445 z M 85.367006,648.16202 C 84.741199,646.02698 84.042175,644.3594 83.269931,643.15924 C 82.497665,641.95913 81.572289,641.35906 80.493804,641.35905 C 78.057196,641.35906 76.838897,644.19695 76.838903,649.87271 C 76.838897,655.25675 78.003938,657.94877 80.334027,657.94877 C 82.357859,657.94877 83.855769,655.57502 84.827759,650.82751 L 85.367006,648.16202 z "
       id="text4374"
       sodipodi:nodetypes="cccccccccsccssscsssssscccsssscc" />
    <g
       id="g8353"
       transform="translate(6.0609153,10.101525)">
      <path
         style="fill:#000000;fill-opacity:1;stroke:none;stroke-width:2.14736843;stroke-linecap:round;stroke-linejoin:round;stroke-miterlimit:4;stroke-dashoffset:0;stroke-opacity:1"
         d="M 129.57089,669.23638 C 129.06129,669.33005 128.70761,669.79741 128.75594,670.31328 C 131.6166,705.6088 140.48612,739.23687 154.31047,770.14477 C 154.53551,770.65112 155.12842,770.87916 155.63477,770.65412 C 156.14111,770.42907 156.36915,769.83617 156.14411,769.32982 C 142.41048,738.62476 133.6063,705.23404 130.76421,670.16775 C 130.74978,669.87747 130.60979,669.60782 130.38067,669.429 C 130.15156,669.25018 129.85598,669.17987 129.57089,669.23638 L 129.57089,669.23638 z "
         id="path4378" />
      <path
         d="M 155.36402,758.20136 L 156.31611,772.13829 L 146.56184,762.13836 C 150.01545,762.88821 153.56559,761.2871 155.36402,758.20136 z "
         style="font-size:12px;fill-rule:evenodd;stroke-width:0.625;stroke-linejoin:round"
         id="path8359" />
      <path
         d="M 125.78416,681.05835 L 129.53051,667.60067 L 135.39518,680.27939 C 132.3888,678.42159 128.50803,678.74823 125.78416,681.05835 z "
         style="font-size:12px;fill-rule:evenodd;stroke-width:0.625;stroke-linejoin:round"
         id="path8361" />
    </g>
    <path
       style="font-size:19.74141312px;font-style:normal;font-weight:normal;fill:#000000;fill-opacity:1;stroke:none;stroke-width:1px;stroke-linecap:butt;stroke-linejoin:miter;stroke-opacity:1;font-family:Lello"
       d="M 107.41435,664.62065 L 107.73309,664.68798 L 106.61267,668.22813 L 96.470904,668.22813 L 96.470904,667.87219 L 96.963505,667.87219 C 97.517275,667.87219 97.913287,667.69262 98.151539,667.33347 C 98.28676,667.12825 98.354373,666.65367 98.354375,665.90972 L 98.354375,657.49227 C 98.354373,656.67779 98.264223,656.16793 98.083928,655.9627 C 97.832797,655.68053 97.459322,655.53943 96.963505,655.53942 L 96.470904,655.53942 L 96.470904,655.18348 L 102.40142,655.18348 L 102.40142,655.53942 C 101.70598,655.53302 101.21821,655.59715 100.93811,655.73182 C 100.658,655.86651 100.46643,656.03647 100.36341,656.24167 C 100.26038,656.44692 100.20886,656.93753 100.20887,657.71353 L 100.20887,665.90972 C 100.20886,666.44202 100.26038,666.80758 100.36341,667.00639 C 100.44068,667.14107 100.5598,667.24048 100.72079,667.30461 C 100.88176,667.36874 101.38402,667.40081 102.22756,667.40081 L 103.18378,667.40081 C 104.18829,667.40081 104.89339,667.32706 105.29907,667.17955 C 105.70473,667.03205 106.07498,666.77071 106.40983,666.39553 C 106.74466,666.02035 107.0795,665.42873 107.41435,664.62065 L 107.41435,664.62065 z "
       id="text4380" />
    <path
       style="font-size:12.45400429px;font-style:normal;font-weight:normal;fill:#000000;fill-opacity:1;stroke:none;stroke-width:1px;stroke-linecap:butt;stroke-linejoin:miter;stroke-opacity:1;font-family:Lello"
       d="M 108.57535,667.46151 C 108.57535,666.52288 108.71753,665.71472 109.00188,665.03703 C 109.28624,664.35936 109.66403,663.85464 110.13525,663.52287 C 110.50084,663.25989 110.87862,663.1284 111.2686,663.12839 C 111.90231,663.1284 112.47101,663.45004 112.97474,664.09333 C 113.60438,664.89037 113.9192,665.97062 113.9192,667.33407 C 113.9192,668.2889 113.78108,669.1001 113.50485,669.76767 C 113.22862,670.43523 112.87622,670.91972 112.44766,671.22115 C 112.01909,671.52256 111.60576,671.67327 111.20767,671.67327 C 110.4196,671.67327 109.76355,671.21002 109.23952,670.28351 C 108.79674,669.50266 108.57535,668.56199 108.57535,667.46151 L 108.57535,667.46151 z M 109.76964,667.61324 C 109.76964,668.74608 109.90979,669.67057 110.19009,670.38668 C 110.42162,670.98952 110.76692,671.29093 111.22595,671.29093 C 111.44531,671.29093 111.67279,671.19282 111.9084,670.9966 C 112.144,670.80037 112.32274,670.47165 112.44462,670.01042 C 112.63148,669.31453 112.7249,668.3334 112.72491,667.06704 C 112.7249,666.12841 112.62741,665.34554 112.43242,664.71842 C 112.28619,664.25315 112.09729,663.92341 111.86575,663.7292 C 111.6992,663.5957 111.49811,663.52894 111.26251,663.52893 C 110.98627,663.52894 110.74052,663.65233 110.52521,663.89913 C 110.23273,664.23495 110.03368,664.76293 109.92807,665.48309 C 109.82245,666.20325 109.76964,666.91331 109.76964,667.61324 L 109.76964,667.61324 z "
       id="text4384" />
    <path
       style="opacity:1;fill:none;fill-opacity:1;stroke:#000000;stroke-width:1;stroke-linecap:butt;stroke-linejoin:round;stroke-miterlimit:4;stroke-dasharray:none;stroke-dashoffset:0;stroke-opacity:1"
       d="M 224.75895,650.82655 L 268.19551,552.33668"
       id="path4396" />
    <path
       style="opacity:1;fill:none;fill-opacity:1;stroke:#000000;stroke-width:1;stroke-linecap:butt;stroke-linejoin:round;stroke-miterlimit:4;stroke-dasharray:none;stroke-dashoffset:0;stroke-opacity:1"
       d="M 106.5711,615.97629 L 136.3706,545.26561"
       id="path4398" />
    <path
       d="m 155.05842,524.5575 c 0,8.08943 -6.55778,14.64721 -14.64721,14.64721 -8.08943,0 -14.64721,-6.55778 -14.64721,-14.64721 0,-8.08944 6.55778,-14.64722 14.64721,-14.64722 8.08943,0 14.64721,6.55778 14.64721,14.64722 z"
       sodipodi:ry="14.647212"
       sodipodi:rx="14.647212"
       sodipodi:cy="524.5575"
       sodipodi:cx="140.41121"
       id="path7313"
       style="opacity:1;fill:#ffffff;fill-opacity:1;stroke:#000000;stroke-width:2;stroke-linecap:butt;stroke-linejoin:round;stroke-miterlimit:4;stroke-dasharray:none;stroke-dashoffset:0;stroke-opacity:1"
       sodipodi:type="arc"
       transform="translate(134.98949,16.172954)" />
    <g
       id="g8333"
       transform="matrix(1,0,0.21634539,1.7572089,-149.52789,-489.10215)">
      <path
         style="fill:#000000;fill-opacity:1;stroke:none"
         d="m 291.15625,632.5 -1.96875,0.28125 4.03125,27.78125 1.96875,-0.28125 L 291.15625,632.5 z"
         id="path7319"
         inkscape:connector-curvature="0" />
      <path
         d="m 286.88219,643.69389 2.88385,-13.66849 6.65827,12.28055 c -3.11833,-1.66307 -6.97051,-1.09055 -9.54212,1.38794 z"
         style="font-size:12px;fill-rule:evenodd;stroke-width:0.625;stroke-linejoin:round"
         id="path8339"
         inkscape:connector-curvature="0" />
      <path
         d="m 297.49106,649.3729 -2.88385,13.66849 -6.65827,-12.28055 c 3.11833,1.66307 6.97051,1.09055 9.54212,-1.38794 z"
         style="font-size:12px;fill-rule:evenodd;stroke-width:0.625;stroke-linejoin:round"
         id="path8341"
         inkscape:connector-curvature="0" />
    </g>
    <g
       id="g8343"
       transform="matrix(1,0,-0.02787168,0.67947563,9.3306222,228.77459)">
      <path
         style="fill:#000000;fill-opacity:1;stroke:none"
         d="m 369.1875,606.84375 -2,0.0625 1.53125,45.96875 2,-0.0625 -1.53125,-45.96875 z"
         id="path7321"
         inkscape:connector-curvature="0" />
      <path
         d="m 363.70747,617.50102 4.38665,-13.26279 5.25065,12.94508 c -2.91395,-1.99967 -6.8059,-1.85929 -9.6373,0.31771 z"
         style="font-size:12px;fill-rule:evenodd;stroke-width:0.625;stroke-linejoin:round"
         id="path8349"
         inkscape:connector-curvature="0" />
      <path
         d="m 374.20896,642.23074 -4.38665,13.26279 -5.25065,-12.94508 c 2.91395,1.99967 6.8059,1.85929 9.6373,-0.31771 z"
         style="font-size:12px;fill-rule:evenodd;stroke-width:0.625;stroke-linejoin:round"
         id="path8351"
         inkscape:connector-curvature="0" />
    </g>
    <path
       id="path8292"
       d="m 285.38276,651.1016 45.80988,-94.98447"
       style="fill:none;stroke:#000000;stroke-width:0.89809579;stroke-linecap:butt;stroke-linejoin:round;stroke-miterlimit:4;stroke-opacity:1;stroke-dasharray:none;stroke-dashoffset:0"
       inkscape:connector-curvature="0" />
    <path
       style="fill:none;stroke:#000000;stroke-width:1.07916629;stroke-linecap:butt;stroke-linejoin:round;stroke-miterlimit:4;stroke-opacity:1;stroke-dasharray:none;stroke-dashoffset:0"
       d="m 361.94906,660.09369 41.45539,-102.9651"
       id="path8294"
       inkscape:connector-curvature="0" />
    <path
       transform="translate(195.90938,16.172954)"
       sodipodi:type="arc"
       style="fill:#ffffff;fill-opacity:1;stroke:#000000;stroke-width:2;stroke-linecap:butt;stroke-linejoin:round;stroke-miterlimit:4;stroke-opacity:1;stroke-dasharray:none;stroke-dashoffset:0"
       id="path8296"
       sodipodi:cx="140.41121"
       sodipodi:cy="524.5575"
       sodipodi:rx="14.647212"
       sodipodi:ry="14.647212"
       d="m 155.05842,524.5575 c 0,8.08943 -6.55778,14.64721 -14.64721,14.64721 -8.08943,0 -14.64721,-6.55778 -14.64721,-14.64721 0,-8.08944 6.55778,-14.64722 14.64721,-14.64722 8.08943,0 14.64721,6.55778 14.64721,14.64722 z" />
    <path
       d="m 155.05842,524.5575 c 0,8.08943 -6.55778,14.64721 -14.64721,14.64721 -8.08943,0 -14.64721,-6.55778 -14.64721,-14.64721 0,-8.08944 6.55778,-14.64722 14.64721,-14.64722 8.08943,0 14.64721,6.55778 14.64721,14.64722 z"
       sodipodi:ry="14.647212"
       sodipodi:rx="14.647212"
       sodipodi:cy="524.5575"
       sodipodi:cx="140.41121"
       id="path8302"
       style="fill:#ffffff;fill-opacity:1;stroke:#000000;stroke-width:2;stroke-linecap:butt;stroke-linejoin:round;stroke-miterlimit:4;stroke-opacity:1;stroke-dasharray:none;stroke-dashoffset:0"
       sodipodi:type="arc"
       transform="translate(268.04863,16.172954)" />
    <path
       style="font-size:28.18917465px;font-style:normal;font-weight:normal;fill:#000000;fill-opacity:1;stroke:none;font-family:Lello"
       d="m 342.65902,543.37319 0,1.95452 -2.50509,0 0,4.9276 -2.2711,0 0,-4.9276 -7.90068,0 0,-1.76182 8.65771,-12.3603 1.51407,0 0,12.1676 2.50509,0 z m -4.77619,0 0,-9.26334 -6.55179,9.26334 6.55179,0 z"
       id="text8304"
       inkscape:connector-curvature="0" />
    <path
       transform="translate(0.1341204,16.172954)"
       sodipodi:type="arc"
       style="opacity:1;fill:#ffffff;fill-opacity:1;stroke:#000000;stroke-width:2;stroke-linecap:butt;stroke-linejoin:round;stroke-miterlimit:4;stroke-dasharray:none;stroke-dashoffset:0;stroke-opacity:1"
       id="path8308"
       sodipodi:cx="140.41121"
       sodipodi:cy="524.5575"
       sodipodi:rx="14.647212"
       sodipodi:ry="14.647212"
       d="m 155.05842,524.5575 c 0,8.08943 -6.55778,14.64721 -14.64721,14.64721 -8.08943,0 -14.64721,-6.55778 -14.64721,-14.64721 0,-8.08944 6.55778,-14.64722 14.64721,-14.64722 8.08943,0 14.64721,6.55778 14.64721,14.64722 z" />
    <path
       style="font-size:28.18917465px;font-style:normal;font-weight:normal;fill:#000000;fill-opacity:1;stroke:none;stroke-width:1px;stroke-linecap:butt;stroke-linejoin:miter;stroke-opacity:1;font-family:Lello"
       d="M 137.08362,533.42167 L 141.62582,531.20562 L 142.08004,531.20562 L 142.08004,546.96568 C 142.08003,548.01177 142.12361,548.66328 142.2108,548.92021 C 142.29796,549.17714 142.47919,549.37443 142.75448,549.51207 C 143.02976,549.64971 143.58951,549.72771 144.43372,549.74606 L 144.43372,550.25534 L 137.41396,550.25534 L 137.41396,549.74606 C 138.29486,549.72771 138.86379,549.65201 139.12072,549.51895 C 139.37765,549.3859 139.55659,549.20696 139.65753,548.98215 C 139.75846,548.75733 139.80893,548.08518 139.80894,546.96568 L 139.80894,536.89026 C 139.80893,535.5322 139.76305,534.66046 139.67129,534.27505 C 139.60705,533.98143 139.49006,533.76579 139.32031,533.62813 C 139.15054,533.4905 138.94637,533.42168 138.7078,533.42167 C 138.36827,533.42168 137.8957,533.56391 137.29008,533.84836 L 137.08362,533.42167 z "
       id="text8310" />
    <path
       id="path8389"
       d="M 553.71777,669.41899 L 606.30116,545.66043"
       style="opacity:1;fill:none;fill-opacity:1;stroke:#000000;stroke-width:0.99999994;stroke-linecap:butt;stroke-linejoin:round;stroke-miterlimit:4;stroke-dasharray:none;stroke-dashoffset:0;stroke-opacity:1" />
    <path
       transform="translate(468.04863,16.172954)"
       sodipodi:type="arc"
       style="opacity:1;fill:#ffffff;fill-opacity:1;stroke:#000000;stroke-width:2;stroke-linecap:butt;stroke-linejoin:round;stroke-miterlimit:4;stroke-dasharray:none;stroke-dashoffset:0;stroke-opacity:1"
       id="path8391"
       sodipodi:cx="140.41121"
       sodipodi:cy="524.5575"
       sodipodi:rx="14.647212"
       sodipodi:ry="14.647212"
       d="m 155.05842,524.5575 c 0,8.08943 -6.55778,14.64721 -14.64721,14.64721 -8.08943,0 -14.64721,-6.55778 -14.64721,-14.64721 0,-8.08944 6.55778,-14.64722 14.64721,-14.64722 8.08943,0 14.64721,6.55778 14.64721,14.64722 z" />
    <path
       style="font-size:28.18959618px;font-style:normal;font-weight:normal;fill:#000000;fill-opacity:1;stroke:none;stroke-width:1px;stroke-linecap:butt;stroke-linejoin:miter;stroke-opacity:1;font-family:Lello"
       d="M 604.35116,531.20546 L 614.35792,531.20546 L 614.35792,531.72851 L 608.13639,550.25546 L 606.59477,550.25546 L 612.16937,533.44907 L 607.03523,533.44907 C 605.9983,533.44908 605.25961,533.57296 604.81915,533.82071 C 604.04834,534.24283 603.42894,534.89435 602.96095,535.77526 L 602.56178,535.62385 L 604.35116,531.20546 z "
       id="text8397" />
    <path
       style="opacity:1;fill:none;fill-opacity:1;stroke:#000000;stroke-width:0.99999994;stroke-linecap:butt;stroke-linejoin:round;stroke-miterlimit:4;stroke-dasharray:none;stroke-dashoffset:0;stroke-opacity:1"
       d="M 206.30117,545.6604 L 160.5659,653.47442 L 196.12692,677.59841"
       id="path8403" />
    <path
       d="m 155.05842,524.5575 c 0,8.08943 -6.55778,14.64721 -14.64721,14.64721 -8.08943,0 -14.64721,-6.55778 -14.64721,-14.64721 0,-8.08944 6.55778,-14.64722 14.64721,-14.64722 8.08943,0 14.64721,6.55778 14.64721,14.64722 z"
       sodipodi:ry="14.647212"
       sodipodi:rx="14.647212"
       sodipodi:cy="524.5575"
       sodipodi:cx="140.41121"
       id="path8405"
       style="opacity:1;fill:#ffffff;fill-opacity:1;stroke:#000000;stroke-width:2;stroke-linecap:butt;stroke-linejoin:round;stroke-miterlimit:4;stroke-dasharray:none;stroke-dashoffset:0;stroke-opacity:1"
       sodipodi:type="arc"
       transform="translate(68.04863,16.172954)" />
    <path
       style="font-size:28.18959618px;font-style:normal;font-weight:normal;fill:#000000;fill-opacity:1;stroke:none;font-family:Lello"
       d="m 414.61798,531.23299 -1.07363,2.33995 -5.6159,0 -1.22503,2.50513 c 2.43171,0.35789 4.35873,1.26176 5.78107,2.7116 1.22043,1.24799 1.83066,2.71619 1.83067,4.40463 -10e-6,0.98187 -0.1996,1.89032 -0.59875,2.72536 -0.39918,0.83504 -0.90159,1.54621 -1.50721,2.13349 -0.60565,0.58728 -1.2801,1.05986 -2.02338,1.41774 -1.05528,0.50469 -2.13808,0.75704 -3.24841,0.75704 -1.11951,0 -1.9339,-0.19041 -2.44319,-0.57122 -0.50928,-0.38082 -0.76392,-0.80064 -0.76392,-1.25945 0,-0.25694 0.10552,-0.48405 0.31658,-0.68134 0.21105,-0.19729 0.47717,-0.29594 0.79834,-0.29594 0.23858,0 0.44734,0.0367 0.62628,0.11012 0.17893,0.0734 0.48405,0.26152 0.91534,0.56434 0.68821,0.47717 1.38561,0.71575 2.09219,0.71575 1.07362,0 2.01649,-0.40605 2.8286,-1.21815 0.81209,-0.8121 1.21814,-1.80085 1.21815,-2.96624 -10e-6,-1.12868 -0.36247,-2.18166 -1.08739,-3.15894 -0.72494,-0.97727 -1.72515,-1.73202 -3.00065,-2.26426 -1.00022,-0.41292 -2.3629,-0.6515 -4.08804,-0.71575 l 3.57875,-7.25386 6.68953,0 z"
       id="text8407"
       inkscape:connector-curvature="0" />
    <path
       style="font-size:28.18917465px;font-style:normal;font-weight:normal;fill:#000000;fill-opacity:1;stroke:none;stroke-width:1px;stroke-linecap:butt;stroke-linejoin:miter;stroke-opacity:1;font-family:Lello"
       d="M 214.61934,546.66284 L 213.31174,550.25531 L 202.30034,550.25531 L 202.30034,549.74603 C 205.53952,546.79131 207.8198,544.37798 209.14117,542.50604 C 210.46253,540.63411 211.12321,538.92276 211.12322,537.37197 C 211.12321,536.18826 210.76076,535.21559 210.03585,534.45395 C 209.31092,533.69235 208.44378,533.31154 207.43441,533.31152 C 206.51679,533.31154 205.69323,533.57994 204.96372,534.11673 C 204.23422,534.65355 203.69512,535.44041 203.34643,536.4773 L 202.83715,536.4773 C 203.06655,534.77972 203.65612,533.47671 204.60585,532.56825 C 205.55558,531.65983 206.7416,531.20561 208.16391,531.20559 C 209.67797,531.20561 210.94199,531.69195 211.95596,532.6646 C 212.96992,533.63729 213.4769,534.78431 213.47691,536.10566 C 213.4769,537.05082 213.25667,537.99597 212.81623,538.9411 C 212.13718,540.42765 211.03604,542.00136 209.51281,543.66224 C 207.22794,546.15816 205.80105,547.66304 205.23213,548.17691 L 210.10467,548.17691 C 211.09569,548.17691 211.79078,548.1402 212.18995,548.06679 C 212.58911,547.99339 212.94927,547.84427 213.27045,547.61946 C 213.5916,547.39464 213.87147,547.07577 214.11007,546.66284 L 214.61934,546.66284 z "
       id="text7315" />
    <path
       style="font-size:28.18917465px;font-style:normal;font-weight:normal;fill:#000000;fill-opacity:1;stroke:none;stroke-width:1px;stroke-linecap:butt;stroke-linejoin:miter;stroke-opacity:1;font-family:Lello"
       d="M 270.38363,534.977 C 270.91585,533.71988 271.588,532.7495 272.4001,532.06586 C 273.21218,531.38225 274.22385,531.04044 275.43511,531.04042 C 276.93082,531.04044 278.07784,531.52678 278.87617,532.49943 C 279.48179,533.22437 279.7846,533.99975 279.78461,534.82559 C 279.7846,536.18368 278.93122,537.58763 277.22446,539.03745 C 278.37147,539.48709 279.23862,540.12942 279.82591,540.96444 C 280.41317,541.79948 280.70681,542.78133 280.70682,543.90999 C 280.70681,545.525 280.19294,546.92437 279.16522,548.10809 C 277.82549,549.64968 275.88474,550.42048 273.34295,550.42048 C 272.08581,550.42048 271.23013,550.26449 270.77591,549.9525 C 270.32169,549.64051 270.09458,549.30558 270.09458,548.94771 C 270.09458,548.6816 270.2024,548.44761 270.41804,548.24573 C 270.63368,548.04386 270.89291,547.94292 271.19572,547.94292 C 271.42513,547.94292 271.65912,547.97962 271.8977,548.05303 C 272.05369,548.09891 272.40697,548.26638 272.95755,548.55543 C 273.50811,548.84448 273.88892,549.01653 274.09998,549.07158 C 274.43949,549.17252 274.80195,549.22299 275.18736,549.22299 C 276.12332,549.22299 276.9377,548.86053 277.63051,548.13562 C 278.3233,547.4107 278.6697,546.55273 278.66971,545.5617 C 278.6697,544.83679 278.50912,544.13023 278.18796,543.44201 C 277.94937,542.92815 277.68785,542.53816 277.4034,542.27205 C 277.00882,541.90501 276.46742,541.57237 275.77922,541.27414 C 275.091,540.97592 274.38902,540.82681 273.67329,540.8268 L 273.23283,540.8268 L 273.23283,540.41387 C 273.95774,540.32212 274.68495,540.0606 275.41447,539.62931 C 276.14396,539.19804 276.67389,538.67959 277.00424,538.07395 C 277.33457,537.46834 277.49974,536.80307 277.49975,536.07814 C 277.49974,535.13301 277.20381,534.36909 276.61195,533.78639 C 276.02009,533.20372 275.2837,532.91238 274.40279,532.91236 C 272.98048,532.91238 271.79217,533.674 270.83785,535.19723 L 270.38363,534.977 z "
       id="text8298" />
    <path
       style="opacity:1;fill:none;fill-opacity:1;stroke:#000000;stroke-width:0.99999988;stroke-linecap:butt;stroke-linejoin:round;stroke-miterlimit:4;stroke-dasharray:none;stroke-dashoffset:0;stroke-opacity:1"
       d="M 460.14633,634.49437 L 497.72972,545.66041"
       id="path8411" />
    <path
       d="m 155.05842,524.5575 c 0,8.08943 -6.55778,14.64721 -14.64721,14.64721 -8.08943,0 -14.64721,-6.55778 -14.64721,-14.64721 0,-8.08944 6.55778,-14.64722 14.64721,-14.64722 8.08943,0 14.64721,6.55778 14.64721,14.64722 z"
       sodipodi:ry="14.647212"
       sodipodi:rx="14.647212"
       sodipodi:cy="524.5575"
       sodipodi:cx="140.41121"
       id="path8413"
       style="opacity:1;fill:#ffffff;fill-opacity:1;stroke:#000000;stroke-width:2;stroke-linecap:butt;stroke-linejoin:round;stroke-miterlimit:4;stroke-dasharray:none;stroke-dashoffset:0;stroke-opacity:1"
       sodipodi:type="arc"
       transform="translate(359.4772,16.172954)" />
    <path
       style="font-size:28.18959618px;font-style:normal;font-weight:normal;fill:#000000;fill-opacity:1;stroke:none;stroke-width:1px;stroke-linecap:butt;stroke-linejoin:miter;stroke-opacity:1;font-family:Lello"
       d="M 504.67376,531.20543 L 504.67376,531.71472 C 503.46248,531.83403 502.47373,532.0749 501.70752,532.43735 C 500.94129,532.79983 500.18425,533.3527 499.43639,534.09597 C 498.68851,534.83926 498.06911,535.66742 497.57819,536.58045 C 497.08725,537.4935 496.67661,538.5786 496.34627,539.83574 C 497.66765,538.9273 498.99362,538.47307 500.32419,538.47306 C 501.59969,538.47307 502.70543,538.98695 503.64143,540.01468 C 504.5774,541.04244 505.04539,542.36382 505.0454,543.97884 C 505.04539,545.53882 504.57281,546.96114 503.62766,548.24582 C 502.48979,549.80579 500.98488,550.58578 499.11292,550.58578 C 497.83741,550.58578 496.75461,550.16367 495.86451,549.31945 C 494.12101,547.67689 493.24926,545.54799 493.24927,542.93274 C 493.24926,541.26267 493.5842,539.67517 494.25407,538.17024 C 494.92394,536.66534 495.88057,535.33019 497.12396,534.16479 C 498.36734,532.99942 499.55797,532.21484 500.69583,531.81107 C 501.83369,531.40733 502.89355,531.20545 503.87542,531.20543 L 504.67376,531.20543 z M 496.11227,540.84055 C 495.94709,542.07936 495.86451,543.07957 495.86451,543.8412 C 495.86451,544.72213 496.02739,545.67876 496.35315,546.71109 C 496.6789,547.74342 497.16295,548.56241 497.8053,549.16804 C 498.27328,549.59933 498.84221,549.81497 499.51209,549.81497 C 500.31042,549.81497 501.02388,549.43874 501.65246,548.68628 C 502.28103,547.93383 502.59532,546.8602 502.59533,545.4654 C 502.59532,543.89626 502.28332,542.53817 501.65935,541.39113 C 501.03535,540.2441 500.14984,539.67058 499.00281,539.67057 C 498.6541,539.67058 498.28017,539.74399 497.881,539.8908 C 497.48183,540.03763 496.89225,540.35421 496.11227,540.84055 L 496.11227,540.84055 z "
       id="text8415" />
    <path
       id="path8419"
       d="M 360.86062,664.15467 L 398.44401,752.98863"
       style="opacity:1;fill:none;fill-opacity:1;stroke:#000000;stroke-width:0.99999988;stroke-linecap:butt;stroke-linejoin:round;stroke-miterlimit:4;stroke-dasharray:none;stroke-dashoffset:0;stroke-opacity:1" />
    <path
       transform="matrix(1,0,0,-1,260.19149,1282.4762)"
       sodipodi:type="arc"
       style="opacity:1;fill:#ffffff;fill-opacity:1;stroke:#000000;stroke-width:2;stroke-linecap:butt;stroke-linejoin:round;stroke-miterlimit:4;stroke-dasharray:none;stroke-dashoffset:0;stroke-opacity:1"
       id="path8421"
       sodipodi:cx="140.41121"
       sodipodi:cy="524.5575"
       sodipodi:rx="14.647212"
       sodipodi:ry="14.647212"
       d="m 155.05842,524.5575 c 0,8.08943 -6.55778,14.64721 -14.64721,14.64721 -8.08943,0 -14.64721,-6.55778 -14.64721,-14.64721 0,-8.08944 6.55778,-14.64722 14.64721,-14.64722 8.08943,0 14.64721,6.55778 14.64721,14.64722 z" />
    <path
       style="font-size:28.18959618px;font-style:normal;font-weight:normal;fill:#000000;fill-opacity:1;stroke:none;stroke-width:1px;stroke-linecap:butt;stroke-linejoin:miter;stroke-opacity:1;font-family:Lello"
       d="M 395.00057,767.66391 L 395.00057,767.15462 C 396.19348,767.13627 397.30382,766.85869 398.33157,766.32187 C 399.35931,765.78506 400.35264,764.84679 401.31157,763.50704 C 402.27048,762.16731 402.93806,760.69451 403.3143,759.08865 C 401.87361,760.01547 400.57058,760.47887 399.40519,760.47886 C 398.09298,760.47887 396.96888,759.97188 396.0329,758.95789 C 395.09692,757.94392 394.62893,756.5973 394.62893,754.91803 C 394.62893,753.28466 395.09692,751.83022 396.0329,750.5547 C 397.16158,749.00392 398.63438,748.22852 400.45129,748.2285 C 401.98372,748.22852 403.29593,748.86169 404.38792,750.128 C 405.72765,751.69716 406.39752,753.63336 406.39753,755.9366 C 406.39752,758.01045 405.88824,759.94435 404.86968,761.73831 C 403.8511,763.53228 402.43336,765.02114 400.61646,766.20488 C 399.13907,767.17756 397.52864,767.66391 395.78514,767.66391 L 395.00057,767.66391 z M 403.53453,758.07009 C 403.69969,756.87718 403.78228,755.92284 403.78229,755.20708 C 403.78228,754.31699 403.63087,753.35577 403.32806,752.32343 C 403.02523,751.29111 402.59624,750.49965 402.04109,749.94906 C 401.48591,749.3985 400.85504,749.12321 400.14847,749.12319 C 399.33178,749.12321 398.61603,749.49026 398.00122,750.22435 C 397.3864,750.95847 397.079,752.05045 397.079,753.50029 C 397.079,755.4365 397.48734,756.95059 398.30404,758.04256 C 398.90049,758.83173 399.63459,759.22631 400.50635,759.2263 C 400.92845,759.22631 401.42856,759.12537 402.00667,758.92348 C 402.58477,758.72161 403.09406,758.43715 403.53453,758.07009 L 403.53453,758.07009 z "
       id="text8423" />
    <path
       style="opacity:1;fill:none;fill-opacity:1;stroke:#000000;stroke-width:0.99999988;stroke-linecap:butt;stroke-linejoin:round;stroke-miterlimit:4;stroke-dasharray:none;stroke-dashoffset:0;stroke-opacity:1"
       d="M 268.77793,648.49733 L 313.08611,752.98865"
       id="path8427" />
    <path
       d="m 155.05842,524.5575 c 0,8.08943 -6.55778,14.64721 -14.64721,14.64721 -8.08943,0 -14.64721,-6.55778 -14.64721,-14.64721 0,-8.08944 6.55778,-14.64722 14.64721,-14.64722 8.08943,0 14.64721,6.55778 14.64721,14.64722 z"
       sodipodi:ry="14.647212"
       sodipodi:rx="14.647212"
       sodipodi:cy="524.5575"
       sodipodi:cx="140.41121"
       id="path8429"
       style="opacity:1;fill:#ffffff;fill-opacity:1;stroke:#000000;stroke-width:2;stroke-linecap:butt;stroke-linejoin:round;stroke-miterlimit:4;stroke-dasharray:none;stroke-dashoffset:0;stroke-opacity:1"
       sodipodi:type="arc"
       transform="matrix(1,0,0,-1,174.8336,1282.4762)" />
    <path
       style="font-size:28.18959618px;font-style:normal;font-weight:normal;fill:#000000;fill-opacity:1;stroke:none;stroke-width:1px;stroke-linecap:butt;stroke-linejoin:miter;stroke-opacity:1;font-family:Lello"
       d="M 313.56556,757.87738 C 312.08817,756.66612 311.13613,755.69344 310.70943,754.95932 C 310.28273,754.22523 310.06938,753.4636 310.06939,752.67442 C 310.06938,751.46316 310.53738,750.41936 311.47336,749.54301 C 312.40934,748.66669 313.65273,748.22852 315.20353,748.2285 C 316.70843,748.22852 317.9197,748.63687 318.83734,749.45354 C 319.75496,750.27025 320.21378,751.20164 320.21379,752.24772 C 320.21378,752.94514 319.96602,753.6563 319.47051,754.38121 C 318.97498,755.10615 317.94264,755.95955 316.37351,756.9414 C 317.98852,758.18939 319.05756,759.17125 319.58062,759.88699 C 320.27801,760.82298 320.62671,761.80943 320.62672,762.84635 C 320.62671,764.15856 320.1266,765.28037 319.1264,766.21176 C 318.12617,767.14315 316.81396,767.60885 315.18976,767.60885 C 313.41873,767.60885 312.0377,767.05368 311.04666,765.94335 C 310.2575,765.05325 309.86292,764.08057 309.86292,763.02529 C 309.86292,762.19943 310.1405,761.38044 310.69567,760.56833 C 311.25083,759.75624 312.20746,758.85926 313.56556,757.87738 L 313.56556,757.87738 z M 315.72658,756.40459 C 316.82772,755.41356 317.52512,754.63128 317.81877,754.05775 C 318.1124,753.48424 318.25923,752.83502 318.25924,752.11008 C 318.25923,751.14658 317.98852,750.39183 317.44713,749.84583 C 316.90572,749.29985 316.16703,749.02686 315.23106,749.02684 C 314.29507,749.02686 313.53343,749.29756 312.94616,749.83894 C 312.35887,750.38036 312.06523,751.01353 312.06523,751.73844 C 312.06523,752.21562 312.18681,752.69279 312.42999,753.16994 C 312.67316,753.64712 313.01956,754.10135 313.46921,754.53262 L 315.72658,756.40459 z M 314.21249,758.40043 C 313.45085,759.04278 312.88651,759.74247 312.51946,760.49951 C 312.1524,761.25656 311.96888,762.07555 311.96888,762.95647 C 311.96888,764.14021 312.29234,765.08766 312.93927,765.79882 C 313.5862,766.50999 314.40977,766.86557 315.40999,766.86557 C 316.40103,766.86557 317.19478,766.58569 317.79124,766.02594 C 318.38769,765.46619 318.68592,764.78714 318.68593,763.9888 C 318.68592,763.32811 318.51157,762.73624 318.16288,762.21319 C 317.51136,761.2405 316.19456,759.96959 314.21249,758.40043 L 314.21249,758.40043 z "
       id="text8431" />
  </g>
</svg>
